<svg width="617" height="551" viewBox="0 0 617 551" fill="none" xmlns="http://www.w3.org/2000/svg">
<path d="M123.5 191.5L156.5 284L110.5 391L13 463.5L52.5 504L138.5 542.5L241 517.5L293 414L349 497.5C382.833 507.5 451.2 528 454 530C456.8 532 541.5 497.833 583.5 480.5L516 396C511.5 364.667 501.4 302 497 302C492.6 302 434.833 260.667 406.5 240L484.5 197.5L572.5 47.5H441.5L313 84.5L193.5 43L39 64.5L123.5 191.5Z" fill="#E3AC1E" stroke="#9D3E1F" stroke-width="16"/>
<path d="M143.5 157.5L176.5 250L130.5 357L33 429.5L72.5 470L158.5 508.5L261 483.5L313 380L369 463.5C402.833 473.5 471.2 494 474 496C476.8 498 561.5 463.833 603.5 446.5L536 362C531.5 330.667 521.4 268 517 268C512.6 268 454.833 226.667 426.5 206L504.5 163.5L592.5 13.5H461.5L333 50.5L213.5 9L59 30.5L143.5 157.5Z" fill="#E34E1E" stroke="#9D3E1F" stroke-width="16"/>
<path d="M416.509 395.269L323.278 259.812L310.001 240.53L201.817 83.3478H248.353L335.842 210.465L349.118 229.747L463.045 395.269H416.509ZM482.283 382.038L364.857 211.441L351.582 192.147L267.582 70.1133L260.621 60.0001H157.403L182.576 96.5793L294.262 258.856L307.539 278.13L397.277 408.515L404.239 418.617H507.457L482.283 382.038Z" fill="#FFDFA1"/>
<path d="M310.001 240.53L323.278 259.812L307.539 278.13L186.779 418.617H157L294.262 258.856L310.001 240.53Z" fill="#FFDFA1"/>
<path d="M495.031 60.0001L364.858 211.441L349.119 229.747L335.843 210.465L351.582 192.147L439.76 89.5136L465.252 60.0001H495.031Z" fill="#FFDFA1"/>
</svg>
