<svg width="637" height="535" viewBox="0 0 637 535" fill="none" xmlns="http://www.w3.org/2000/svg">
<path d="M101.5 345C148.667 351.167 244.1 363.7 248.5 364.5L265.5 514L380.5 452L426 521L481.5 526.5L607.5 521L574.5 364.5C589.833 355 620.5 335.1 620.5 331.5C620.5 327.9 604.5 251.667 596.5 214L628.5 174.5L620.5 53.5L455.5 94.5L426 122.5L276.5 116.5L222 165.5L14 236L101.5 345Z" fill="#E3AC1E" stroke="#9D3E1F" stroke-width="16"/>
<path d="M101.5 302.5C148.667 308.667 244.1 321.2 248.5 322L265.5 471.5L380.5 409.5L426 478.5L481.5 484L607.5 478.5L574.5 322C589.833 312.5 620.5 292.6 620.5 289C620.5 285.4 604.5 209.167 596.5 171.5L628.5 132L620.5 11L455.5 52L426 80L276.5 74L222 123L14 193.5L101.5 302.5Z" fill="#E34E1E" stroke="#9D3E1F" stroke-width="16"/>
<path d="M568.662 74.0942C567.136 69.5967 565.313 68.4131 562.467 67.2887C556.243 64.9808 545.7 68.4723 545.7 68.4723C545.7 68.4723 172.446 202.689 151.122 217.542C146.531 220.738 144.993 222.632 144.229 224.821C140.543 235.355 152.028 240.03 152.028 240.03L248.233 271.395C248.233 271.395 251.818 271.927 253.096 271.099C274.982 257.251 473.291 132.03 484.728 127.828C486.533 127.295 487.87 127.887 487.515 129.13C482.935 145.227 310.695 298.321 310.695 298.321C310.695 298.321 310.038 299.149 309.624 300.096L309.399 299.978L300.424 395.432C300.424 395.432 296.661 424.666 325.895 395.432C346.521 374.779 366.477 357.499 376.465 349.155C409.545 371.997 445.146 397.267 460.511 410.463C468.226 417.091 474.682 418.157 479.995 417.979C494.579 417.446 498.65 401.409 498.65 401.409C498.65 401.409 566.668 127.591 568.94 90.9009C569.165 87.291 569.473 85.0422 569.496 82.5567C569.538 79.1243 569.218 75.6921 568.662 74.0942Z" fill="#FFDFA1"/>
</svg>
